# xmcd
#
# Track frame offsets: 
#        150
#        5670
#        18395
#        28150
#        42597
#        56907
#        69412
#        89552
#        112537
#        129562
#        148947
#        168292
#        181727
#        200257
#        216870
#        237252
#        255622
#        271972
#        313227
#        325405
#
# Disc length: 4344 seconds
#
# Revision: 2
# Processed by: cddbd v1.5.2PL0 Copyright (c) Steve Scherf et al.
# Submitted via: ExactAudioCopy v0.99pb4
#
DISCID=2610f614
DTITLE=Jim Self - The Big Stretch  (Basset BHR 106-2)
DYEAR=1999
DGENRE=Tuba
TTITLE0=Poker Chips - 1 - Ante-up  (Jim Self)
TTITLE1=Poker Chips - 2 - Seven Card Stud
TTITLE2=Poker Chips - 3 - Inside Straight
TTITLE3=Poker Chips - 4 - Full House
TTITLE4=Poker Chips - 5 - Trips to Win
TTITLE5=Rondeau  (Jim Self)
TTITLE6=Three 4 Five - 1 - Capriccio  (Jim Self)
TTITLE7=Three 4 Five - 2 - Cantilena
TTITLE8=Three 4 Five - 3 - Caccia
TTITLE9=The Ninth Hour of Divine Office - 1 - Tersanctus  (Maria Newma
TTITLE9=n)
TTITLE10=The Ninth Hour of Divine Office - 2 - Doxology
TTITLE11=The Ninth Hour of Divine Office - 3 - Antiphon
TTITLE12=The Ninth Hour of Divine Office - 4 - Miserere
TTITLE13=Time Cycles - I  (Jerome Grant)
TTITLE14=Time Cycles - II
TTITLE15=Time Cycles - III
TTITLE16=Waltz for Maya  (Kim Scharnberg)
TTITLE17=Symphony No 4 - Finale  (Peter Tchaikovsky)
TTITLE18=Polka.com  (Jim Self)
TTITLE19=Dog Tags
EXTD=YEAR: 1999
EXTT0=
EXTT1=
EXTT2=
EXTT3=
EXTT4=
EXTT5=
EXTT6=
EXTT7=
EXTT8=
EXTT9=
EXTT10=
EXTT11=
EXTT12=
EXTT13=
EXTT14=
EXTT15=
EXTT16=
EXTT17=
EXTT18=
EXTT19=
PLAYORDER=
